<?xml version="1.0" encoding="UTF-8" standalone="no"?>
<!-- Creator: CorelDRAW 2018 (64-Bit Evaluation Version) -->

<svg
   xmlns:dc="http://purl.org/dc/elements/1.1/"
   xmlns:cc="http://creativecommons.org/ns#"
   xmlns:rdf="http://www.w3.org/1999/02/22-rdf-syntax-ns#"
   xmlns:svg="http://www.w3.org/2000/svg"
   xmlns="http://www.w3.org/2000/svg"
   xmlns:sodipodi="http://sodipodi.sourceforge.net/DTD/sodipodi-0.dtd"
   xmlns:inkscape="http://www.inkscape.org/namespaces/inkscape"
   xml:space="preserve"
   width="91.024338"
   height="80.000008"
   version="1.1"
   style="clip-rule:evenodd;fill-rule:evenodd;image-rendering:optimizeQuality;shape-rendering:geometricPrecision;text-rendering:geometricPrecision"
   viewBox="0 0 2141.5336 1882.1668"
   id="svg13"
   sodipodi:docname="cc-logo.svg"
   inkscape:version="0.92.5 (2060ec1f9f, 2020-04-08)"><metadata
   id="metadata17"><rdf:RDF><cc:Work
       rdf:about=""><dc:format>image/svg+xml</dc:format><dc:type
         rdf:resource="http://purl.org/dc/dcmitype/StillImage" /><dc:title></dc:title></cc:Work></rdf:RDF></metadata><sodipodi:namedview
   pagecolor="#ffffff"
   bordercolor="#666666"
   borderopacity="1"
   objecttolerance="10"
   gridtolerance="10"
   guidetolerance="10"
   inkscape:pageopacity="0"
   inkscape:pageshadow="2"
   inkscape:window-width="1290"
   inkscape:window-height="674"
   id="namedview15"
   showgrid="false"
   inkscape:zoom="1.5438556"
   inkscape:cx="113.07685"
   inkscape:cy="-13.887773"
   inkscape:window-x="584"
   inkscape:window-y="600"
   inkscape:window-maximized="0"
   inkscape:current-layer="svg13"
   fit-margin-top="0"
   fit-margin-left="0"
   fit-margin-right="0"
   fit-margin-bottom="0"
   units="px" />
 <defs
   id="defs4">
  <style
   type="text/css"
   id="style2">
   <![CDATA[
    .fil0 {fill:black}
   ]]>
  </style>
 </defs>
 <g
   id="Layer_x0020_1"
   style="fill:#eeeeec"
   transform="matrix(0.04625724,0,0,0.04625724,-0.00179344,3.6244674e-4)">
  <metadata
   id="CorelCorpID_0Corel-Layer" />
  <g
   id="_1761831900240"
   style="fill:#eeeeec">
   <path
   class="fil0"
   d="m 23204.91,7530.98 c 2944.63,-3188.84 6384.04,-4639.01 10366.38,-4077.21 4110.34,579.88 7609.97,3518.41 8854.17,7479.01 957.39,3047.58 559.96,6460.83 -722.09,9573.35 C 39709.39,25347.1 33817.06,32228.22 23148.13,37038.98 12479.21,32228.22 6586.88,25347.1 4592.89,20506.13 3310.84,17393.61 2913.42,13980.36 3870.8,10932.78 5114.99,6972.18 8614.63,4033.65 12724.97,3453.77 c 3982.46,-561.82 7421.94,888.46 10366.64,4077.48 5.4,5.84 56.52,61.37 56.53,61.36 0.04,0.04 51.9,-56.36 56.79,-61.63 z m -56.79,-4522.44 C 16716.43,-2039.47 6635.87,-722.29 2000.47,6864.48 461.39,9383.51 -116.67,12312.23 19.17,15219.93 c 235.64,5043.59 2412.75,9452.27 5610.61,13256.78 4306.02,5122.9 10531.26,9148.59 17382.21,12152.72 9.53,4.18 88.63,38.56 136.13,59.69 41.66,-17.53 114.6,-50.41 137.01,-60.3 6815.65,-3004.07 13075.56,-7030.12 17381.33,-12152.12 3198.08,-3804.33 5374.97,-8213.2 5610.61,-13256.78 135.85,-2907.7 -442.2,-5836.43 -1981.3,-8355.45 C 39660.37,-722.3 29579.82,-2039.48 23148.12,3008.53 Z"
   id="path7"
   style="fill:#eeeeec"
   inkscape:connector-curvature="0" />
   <path
   class="fil0"
   d="m 22983.64,21630.19 -2928.01,-1451.38 c -1017.73,1483.99 -1758.21,2488.33 -3897.08,1902.25 -1678.91,-460.05 -2175.85,-2300.18 -2239.67,-3843.76 -87.17,-2108.39 649.94,-4543.46 3168.15,-4413.24 1609.13,83.19 2294.75,1032.23 2661.15,1885.36 l 3196.99,-1638.9 c -1574.75,-3004.31 -5265.13,-4026.05 -8393.32,-3188.81 -3328.66,890.9 -5014.61,3952.95 -4955.5,7255.23 60.43,3375.58 1680.8,6291.51 5161.55,7052.54 1697.16,371.06 3545.13,284.81 5116.74,-503.18 1216.27,-609.83 2567.56,-1786.86 3109,-3056.12 z m 13802.46,0 -2928.01,-1451.38 c -1017.73,1483.99 -1758.21,2488.33 -3897.08,1902.25 -1678.91,-460.05 -2175.86,-2300.18 -2239.67,-3843.76 -87.18,-2108.39 649.94,-4543.46 3168.15,-4413.24 1609.13,83.19 2294.74,1032.23 2661.15,1885.36 l 3196.99,-1638.9 c -1574.75,-3004.31 -5265.14,-4026.05 -8393.32,-3188.81 -3328.66,890.9 -5014.61,3952.95 -4955.5,7255.23 60.42,3375.58 1680.8,6291.51 5161.55,7052.54 1697.16,371.06 3545.13,284.81 5116.74,-503.18 1216.27,-609.83 2567.56,-1786.86 3109,-3056.12 z"
   id="path9"
   style="fill:#eeeeec"
   inkscape:connector-curvature="0" />
  </g>
 </g>
</svg>